<svg xmlns="http://www.w3.org/2000/svg" width="54.311" height="52.85" viewBox="0 0 54.311 52.85"><path d="M33.021,23.631l-8.3-6.082v23.9l8.3-6.082L41.052,29.5Zm0,0-8.3-6.082v23.9l8.3-6.082L41.052,29.5Zm0,0-8.3-6.082v23.9l8.3-6.082L41.052,29.5ZM27.44,8.44V3.075A27.445,27.445,0,0,0,12.957,8.944l3.866,3.8A21.91,21.91,0,0,1,27.44,8.44ZM12.984,16.487,9.091,12.715A26.086,26.086,0,0,0,3.075,26.844h5.5A20.819,20.819,0,0,1,12.984,16.487ZM8.574,32.156h-5.5A26.086,26.086,0,0,0,9.091,46.284l3.893-3.8a20.629,20.629,0,0,1-4.41-10.331Zm4.383,17.9A27.535,27.535,0,0,0,27.44,55.925V50.56a21.91,21.91,0,0,1-10.617-4.3l-3.866,3.8ZM57.386,29.5c0,13.7-10.672,25.017-24.365,26.425V50.56A21.473,21.473,0,0,0,51.941,29.5,21.473,21.473,0,0,0,33.021,8.44V3.075C46.714,4.483,57.386,15.8,57.386,29.5Z" transform="translate(-3.075 -3.075)"/></svg>