<svg xmlns="http://www.w3.org/2000/svg" width="55.74" height="55.74" viewBox="0 0 55.74 55.74"><defs><style>.a{fill:rgba(0,0,0,0.36);}</style></defs><path d="M36,20.763,15.232,0,11.957,3.275,17.485,8.8,5.524,20.763a3.462,3.462,0,0,0,0,4.924L18.3,38.461a3.476,3.476,0,0,0,4.924,0L36,25.687A3.462,3.462,0,0,0,36,20.763ZM9.635,23.225,20.76,12.1,31.884,23.225Zm32.027,3.484s-4.645,5.04-4.645,8.129a4.645,4.645,0,1,0,9.29,0C46.307,31.749,41.662,26.709,41.662,26.709Z" transform="translate(2.465)"/><path class="a" d="M0,30H55.74v9.29H0Z" transform="translate(0 16.45)"/></svg>