<svg xmlns="http://www.w3.org/2000/svg" width="48.5" height="51.931" viewBox="0 0 48.5 51.931"><path d="M15.821,31.375c-3.8.262-7.249,1.811-9.206,7.333a1.452,1.452,0,0,1-1.382,1.012C4.18,39.721.927,36.914,0,36.237c0,8.353,3.594,15.694,12.126,15.694,7.186,0,12.125-4.439,12.125-12.191,0-.315-.062-.617-.092-.926l-8.337-7.439ZM43.374,0a5.592,5.592,0,0,0-3.809,1.668C20.2,20.189,18.187,20.624,18.187,26.076A9.947,9.947,0,0,0,19.014,30l6.045,5.394a8.177,8.177,0,0,0,2.121.307c5.883,0,9.293-4.612,20-26.012A10.98,10.98,0,0,0,48.5,5.026,5.081,5.081,0,0,0,43.374,0Z" transform="translate(0.001)"/></svg>